<?xml version="1.0" standalone="no"?>
<!DOCTYPE svg PUBLIC "-//W3C//DTD SVG 20010904//EN"
 "http://www.w3.org/TR/2001/REC-SVG-20010904/DTD/svg10.dtd">
<svg version="1.0" xmlns="http://www.w3.org/2000/svg"
 width="1280.000000pt" height="1043.000000pt" viewBox="0 0 1280.000000 1043.000000"
 preserveAspectRatio="xMidYMid meet">
<metadata>
Created by potrace 1.15, written by Peter Selinger 2001-2017
</metadata>
<g transform="translate(0.000000,1043.000000) scale(0.100000,-0.100000)"
fill="#000000" stroke="none">
<path d="M10725 10404 c-11 -3 -58 -11 -105 -20 -134 -24 -296 -68 -387 -105
-310 -129 -578 -313 -829 -571 -158 -162 -235 -256 -394 -478 -194 -271 -325
-422 -472 -545 -116 -98 -195 -149 -340 -220 -37 -18 -148 -48 -283 -75 -131
-27 -180 -45 -345 -126 -69 -34 -154 -74 -190 -89 -36 -14 -74 -30 -85 -35
-43 -19 -103 -42 -175 -66 -386 -127 -510 -143 -1070 -144 -365 0 -459 7 -601
45 -702 185 -1140 250 -1689 250 -253 0 -322 -3 -405 -18 -202 -37 -350 -79
-530 -150 -95 -37 -340 -160 -416 -208 -138 -87 -302 -201 -386 -267 -50 -39
-94 -72 -98 -72 -3 0 -61 51 -128 113 -192 177 -338 281 -519 367 -176 84
-271 112 -473 140 -119 17 -184 20 -440 18 l-300 -3 -3 -39 c-3 -40 24 -166
59 -266 43 -127 50 -146 59 -165 5 -11 30 -69 56 -130 120 -284 222 -426 323
-452 29 -7 260 31 441 73 100 23 137 27 280 27 172 0 268 -16 352 -59 54 -28
108 -74 114 -99 4 -15 -9 -69 -34 -142 -150 -440 -150 -781 -1 -1233 65 -197
149 -384 297 -655 21 -38 60 -110 87 -160 194 -362 178 -322 172 -417 -12
-204 -111 -390 -332 -628 -199 -214 -385 -443 -385 -474 0 -5 17 -37 38 -70
21 -34 42 -70 48 -81 10 -19 45 -39 119 -71 447 -189 623 -270 657 -302 36
-33 470 -904 659 -1319 16 -38 36 -81 44 -98 16 -35 74 -177 103 -250 34 -88
90 -278 102 -350 7 -38 17 -75 22 -82 10 -13 87 -37 153 -48 95 -15 179 -59
221 -116 35 -48 31 -101 -16 -241 -32 -94 -38 -122 -30 -139 15 -27 101 -64
183 -78 81 -14 327 -31 463 -31 171 0 324 54 324 116 0 33 -156 237 -595 779
-181 224 -228 289 -323 453 -36 63 -120 235 -144 297 -42 106 -56 145 -73 200
-25 81 -62 179 -92 240 -44 91 -64 159 -73 254 -10 108 -5 148 20 156 39 12
359 -80 515 -148 189 -84 385 -205 385 -239 0 -11 -28 -50 -63 -86 -34 -37
-80 -87 -101 -111 l-38 -43 4 -97 3 -98 45 -50 c25 -27 104 -112 175 -189 72
-77 155 -168 186 -202 34 -38 62 -60 70 -57 13 5 165 304 204 400 61 150 68
179 67 275 -1 109 -23 212 -81 375 -77 220 -125 309 -202 381 -104 95 -225
157 -454 231 -248 80 -293 94 -320 104 -16 6 -50 17 -75 24 -25 7 -61 19 -80
26 -19 6 -47 16 -62 22 -34 11 -36 38 -9 83 11 17 36 62 56 100 21 38 66 121
100 184 82 150 120 220 163 300 19 36 50 91 68 123 19 32 34 60 34 63 0 3 17
36 39 72 21 37 50 88 63 113 44 79 51 90 127 204 133 200 287 376 480 550 68
61 129 114 137 118 9 5 39 -1 77 -17 102 -41 210 -86 242 -100 17 -8 73 -31
125 -52 52 -20 113 -45 135 -54 58 -25 319 -128 598 -236 50 -19 108 -42 127
-50 19 -7 53 -20 75 -28 22 -7 85 -30 140 -50 228 -84 424 -145 530 -165 33
-6 136 -16 230 -21 182 -11 267 -27 383 -68 53 -19 77 -34 87 -52 18 -36 58
-193 144 -580 38 -170 50 -223 71 -330 12 -58 28 -132 35 -165 8 -33 17 -76
20 -95 3 -19 12 -64 20 -100 27 -130 74 -386 105 -580 19 -116 20 -171 20
-771 0 -505 3 -649 13 -657 6 -5 39 -19 72 -30 131 -44 227 -114 291 -212 55
-85 71 -130 95 -260 11 -57 25 -110 32 -116 7 -7 72 -17 154 -23 77 -6 165
-16 195 -21 29 -6 109 -13 178 -17 118 -5 128 -4 185 20 72 30 78 48 42 116
-44 81 -86 200 -124 351 -7 28 -48 70 -220 225 -267 240 -331 319 -394 485
l-24 65 1 515 c1 513 1 516 27 645 35 173 49 220 92 307 l37 73 -3 365 c-3
341 -1 372 19 470 32 156 67 236 127 288 77 68 134 61 635 -87 183 -54 297
-71 605 -91 88 -5 171 -12 185 -15 14 -2 79 -9 145 -15 152 -13 355 -47 414
-69 54 -20 77 -50 123 -164 l33 -82 -1 -245 c-1 -194 -6 -275 -23 -390 -38
-257 -89 -438 -165 -583 -46 -88 -67 -116 -87 -117 -9 0 -54 19 -100 43 l-84
42 -110 -1 c-73 -1 -121 -6 -140 -15 -30 -14 -41 -37 -80 -169 -7 -25 -32 -97
-55 -160 -126 -347 -150 -426 -150 -498 1 -54 9 -67 65 -103 73 -46 97 -52
162 -39 150 30 356 143 560 307 70 57 474 408 563 490 l45 42 1 313 c1 270 24
724 39 748 2 3 8 44 14 90 22 171 99 481 151 610 13 30 23 67 23 83 0 44 -109
250 -172 324 -31 37 -84 90 -116 117 -58 47 -228 136 -261 136 -9 0 -46 9 -82
19 -37 11 -110 31 -162 46 -161 46 -183 53 -255 80 -38 14 -82 30 -96 34 -14
5 -34 13 -45 19 -10 6 -48 25 -84 43 -121 59 -169 96 -176 137 -4 19 -3 184 2
366 11 400 3 618 -28 731 -30 111 -28 136 24 245 41 86 62 131 133 285 12 28
39 86 60 130 110 236 297 675 314 738 27 98 49 297 56 507 9 257 37 413 100
555 29 65 49 83 71 64 22 -18 390 -469 436 -534 l36 -50 5 -215 c6 -222 19
-321 59 -455 38 -122 101 -211 179 -250 63 -32 174 -34 268 -5 227 72 428 291
460 504 8 51 23 894 34 1956 3 240 5 269 23 305 33 69 54 93 110 130 99 66
206 158 260 224 30 36 54 70 54 76 0 7 -17 23 -37 36 -21 13 -48 40 -61 59
-13 19 -29 38 -36 42 -6 4 -52 -11 -101 -32 -171 -73 -421 -169 -473 -181 -36
-8 -47 -5 -157 36 -38 14 -142 50 -230 79 -348 117 -449 136 -700 135 -104 -1
-199 -3 -210 -5z"/>
</g>
</svg>
