<?xml version="1.0" standalone="no"?>
<!DOCTYPE svg PUBLIC "-//W3C//DTD SVG 20010904//EN"
 "http://www.w3.org/TR/2001/REC-SVG-20010904/DTD/svg10.dtd">
<svg version="1.0" xmlns="http://www.w3.org/2000/svg"
 width="790.000000pt" height="1280.000000pt" viewBox="0 0 790.000000 1280.000000"
 preserveAspectRatio="xMidYMid meet">
<metadata>
Created by potrace 1.15, written by Peter Selinger 2001-2017
</metadata>
<g transform="translate(0.000000,1280.000000) scale(0.100000,-0.100000)"
fill="#000000" stroke="none">
<path d="M4554 12788 c-37 -12 -146 -87 -316 -217 -154 -118 -230 -156 -313
-156 -75 1 -120 22 -243 116 -51 39 -117 81 -145 95 -114 53 -127 31 -138
-221 -8 -196 -16 -238 -56 -286 -65 -76 -164 -114 -358 -135 -130 -14 -224
-33 -252 -52 -8 -5 -3 -34 22 -107 82 -248 71 -389 -44 -532 -24 -31 -102 -98
-191 -164 -149 -111 -150 -112 -150 -152 0 -52 31 -81 190 -182 171 -107 262
-179 310 -243 33 -46 40 -62 40 -102 0 -45 -5 -55 -96 -171 -288 -370 -464
-679 -577 -1009 -212 -621 -149 -1183 192 -1696 91 -137 158 -218 343 -411
149 -156 199 -229 206 -302 4 -45 2 -51 -34 -91 -43 -48 -192 -124 -312 -160
-133 -40 -244 -17 -323 67 -83 88 -106 141 -184 425 -54 195 -81 269 -100 275
-5 1 -41 -25 -80 -58 -273 -238 -569 -327 -909 -273 -161 25 -393 102 -550
181 l-49 25 7 -29 c12 -48 69 -123 197 -258 152 -159 182 -197 216 -272 51
-110 27 -218 -69 -309 -94 -91 -183 -126 -461 -184 -232 -48 -312 -71 -312
-89 0 -17 100 -74 169 -95 29 -9 136 -34 238 -55 102 -22 208 -49 234 -61 126
-55 155 -152 83 -278 -51 -89 -133 -137 -389 -227 -91 -31 -183 -66 -205 -77
-55 -28 -125 -72 -125 -79 0 -10 207 -57 370 -84 190 -31 294 -59 340 -89 77
-51 101 -169 59 -297 -15 -49 -90 -212 -137 -301 -11 -21 195 27 463 107 386
115 532 135 627 84 34 -18 58 -70 58 -126 0 -58 -23 -133 -99 -328 -143 -365
-208 -683 -218 -1067 -8 -306 11 -497 73 -763 223 -948 937 -1761 1909 -2173
368 -156 585 -197 1020 -196 334 0 555 35 845 130 637 211 1126 682 1358 1309
94 255 126 421 125 665 0 391 -124 707 -368 938 -148 139 -310 223 -529 275
-126 30 -448 31 -576 3 -369 -81 -670 -278 -818 -537 -97 -169 -130 -467 -57
-501 52 -24 128 28 225 153 153 196 185 231 257 289 136 110 268 162 413 163
107 2 174 -15 273 -66 227 -117 377 -393 377 -694 0 -446 -239 -847 -613
-1028 -341 -164 -717 -150 -1087 41 -193 100 -316 207 -464 402 -218 291 -354
576 -418 882 -32 151 -32 459 0 606 90 414 330 782 717 1098 294 241 561 387
1099 601 557 221 872 397 1162 646 320 277 508 597 581 989 26 139 23 416 -5
570 -32 178 -85 340 -162 495 -233 474 -628 835 -1340 1225 -465 254 -785 482
-911 648 -99 131 -104 227 -20 395 27 56 80 153 116 216 90 159 125 192 125
119 0 -41 61 -220 103 -305 58 -114 120 -189 198 -239 169 -110 377 -154 969
-209 592 -54 688 -79 935 -245 160 -107 285 -150 439 -150 106 0 199 22 272
65 110 65 195 176 193 254 -1 80 -56 166 -150 238 -281 215 -489 393 -688 588
-288 283 -464 513 -605 792 -96 190 -148 337 -211 593 -52 208 -111 338 -225
489 -72 95 -171 189 -259 246 -120 78 -195 103 -349 115 -120 10 -162 25 -188
65 -21 32 -13 74 32 173 58 124 57 121 31 133 -24 11 -63 0 -337 -96 -130 -45
-225 -56 -258 -29 -31 26 -37 80 -19 182 l14 84 -24 9 c-30 11 -68 10 -109 -3z"/>
</g>
</svg>
