<?xml version="1.0" standalone="no"?>
<!DOCTYPE svg PUBLIC "-//W3C//DTD SVG 20010904//EN"
 "http://www.w3.org/TR/2001/REC-SVG-20010904/DTD/svg10.dtd">
<svg version="1.0" xmlns="http://www.w3.org/2000/svg"
 width="1280.000000pt" height="962.000000pt" viewBox="0 0 1280.000000 962.000000"
 preserveAspectRatio="xMidYMid meet">
<metadata>
Created by potrace 1.15, written by Peter Selinger 2001-2017
</metadata>
<g transform="translate(0.000000,962.000000) scale(0.100000,-0.100000)"
fill="#000000" stroke="none">
<path d="M9322 9606 c-47 -16 -56 -38 -49 -115 8 -90 54 -225 197 -571 143
-345 197 -504 206 -598 6 -68 6 -70 -56 -208 -34 -76 -65 -143 -69 -147 -4 -4
-18 1 -32 11 -59 46 -157 107 -324 203 -635 363 -1272 578 -1940 653 -452 52
-1563 54 -2265 6 -355 -25 -1078 -160 -1366 -256 -111 -37 -230 -95 -300 -147
l-61 -45 -17 29 c-47 79 -180 244 -265 330 -88 87 -116 107 -341 242 -259 154
-299 171 -383 158 -87 -14 -135 -84 -174 -255 -24 -103 -24 -486 0 -612 36
-190 106 -329 241 -474 l38 -42 -31 -41 c-91 -122 -148 -265 -155 -390 -3 -62
-9 -79 -40 -127 -48 -72 -93 -182 -122 -299 -20 -76 -26 -132 -31 -271 -9
-269 22 -487 87 -623 13 -27 15 -39 7 -42 -7 -1 -68 -8 -136 -15 -342 -32
-751 -129 -993 -235 -183 -81 -342 -193 -587 -414 -240 -218 -361 -438 -361
-657 0 -45 5 -59 31 -88 174 -199 1249 -277 2015 -146 292 50 494 110 689 205
103 51 262 154 348 227 l37 32 83 -80 c134 -131 262 -220 424 -296 61 -28 97
-54 135 -95 139 -147 372 -257 723 -343 99 -24 148 -42 205 -75 203 -118 436
-190 680 -210 52 -5 118 -19 170 -37 161 -56 361 -87 557 -88 51 0 159 -10
240 -22 130 -20 186 -23 458 -23 314 0 386 6 630 50 60 11 105 13 178 6 53 -4
99 -10 102 -13 3 -2 -50 -76 -116 -164 -347 -457 -535 -765 -584 -960 -30
-117 -97 -436 -120 -569 l-18 -100 -76 -83 c-311 -339 -395 -451 -518 -694
-51 -100 -59 -110 -116 -149 -226 -153 -400 -352 -463 -528 -15 -42 -49 -128
-76 -192 -56 -135 -59 -169 -22 -198 34 -27 86 -27 215 -1 307 63 751 245
1089 447 142 85 811 532 1014 677 560 402 875 763 1005 1153 42 123 106 376
131 513 27 146 37 388 21 500 -22 146 -82 304 -165 428 l-35 53 157 103 c165
109 400 281 490 358 29 25 67 65 84 87 41 56 99 224 138 402 l33 146 76 -42
c42 -23 177 -100 301 -170 326 -186 484 -257 810 -363 352 -115 534 -147 708
-123 159 21 495 106 575 146 24 12 49 11 187 -8 l160 -21 41 40 c46 45 112
171 134 259 50 192 43 391 -18 519 -101 212 -379 443 -682 567 -203 82 -551
186 -705 209 -84 12 -408 14 -513 2 l-68 -8 -242 163 -242 164 -27 107 c-15
58 -26 107 -25 108 1 1 38 20 83 42 197 99 399 268 496 417 131 200 268 541
323 805 66 315 65 624 -2 860 -69 243 -311 485 -703 706 -426 240 -953 400
-1118 340z"/>
</g>
</svg>
